<svg width="36" height="37" viewBox="0 0 36 37" fill="none" xmlns="http://www.w3.org/2000/svg">
<path fill-rule="evenodd" clip-rule="evenodd" d="M23.3562 13.7877C22.9628 14.1754 22.9582 14.8085 23.3459 15.2019L25.6106 17.5H14C13.4477 17.5 13 17.9477 13 18.5C13 19.0523 13.4477 19.5 14 19.5H25.5858L23.2929 21.7929C22.9024 22.1834 22.9024 22.8166 23.2929 23.2071C23.6834 23.5976 24.3166 23.5976 24.7071 23.2071L28.7071 19.2071C29.0956 18.8186 29.0979 18.1894 28.7123 17.7981L24.7704 13.7981C24.3827 13.4047 23.7496 13.4001 23.3562 13.7877Z" fill="#737373"/>
<mask id="mask0_31757_24339" style="mask-type:alpha" maskUnits="userSpaceOnUse" x="13" y="13" width="16" height="11">
<path fill-rule="evenodd" clip-rule="evenodd" d="M23.3562 13.7877C22.9628 14.1754 22.9582 14.8085 23.3459 15.2019L25.6106 17.5H14C13.4477 17.5 13 17.9477 13 18.5C13 19.0523 13.4477 19.5 14 19.5H25.5858L23.2929 21.7929C22.9024 22.1834 22.9024 22.8166 23.2929 23.2071C23.6834 23.5976 24.3166 23.5976 24.7071 23.2071L28.7071 19.2071C29.0956 18.8186 29.0979 18.1894 28.7123 17.7981L24.7704 13.7981C24.3827 13.4047 23.7496 13.4001 23.3562 13.7877Z" fill="white"/>
</mask>
<g mask="url(#mask0_31757_24339)">
</g>
<path d="M10 26.5H19C19.5523 26.5 20 26.9477 20 27.5C20 28.0523 19.5523 28.5 19 28.5H9C8.44772 28.5 8 28.0523 8 27.5V9.5C8 8.94772 8.44772 8.5 9 8.5H19C19.5523 8.5 20 8.94772 20 9.5C20 10.0523 19.5523 10.5 19 10.5H10V26.5Z" fill="#737373"/>
<mask id="mask1_31757_24339" style="mask-type:alpha" maskUnits="userSpaceOnUse" x="8" y="8" width="12" height="21">
<path d="M10 26.5H19C19.5523 26.5 20 26.9477 20 27.5C20 28.0523 19.5523 28.5 19 28.5H9C8.44772 28.5 8 28.0523 8 27.5V9.5C8 8.94772 8.44772 8.5 9 8.5H19C19.5523 8.5 20 8.94772 20 9.5C20 10.0523 19.5523 10.5 19 10.5H10V26.5Z" fill="white"/>
</mask>
<g mask="url(#mask1_31757_24339)">
</g>
</svg>
